STARTFONT 2.1
FONT -FontForge-Consolas-Book-R-Normal--28-200-100-100-P-142-ISO10646-1
SIZE 20 100 100
FONTBOUNDINGBOX 14 19 1 0
COMMENT "Generated by fontforge, http://fontforge.sourceforge.net"
COMMENT "(c) 2018 Microsoft Corporation. All rights reserved."
STARTPROPERTIES 37
FOUNDRY "FontForge"
FAMILY_NAME "Consolas"
WEIGHT_NAME "Book"
SLANT "R"
SETWIDTH_NAME "Normal"
ADD_STYLE_NAME ""
PIXEL_SIZE 28
POINT_SIZE 200
RESOLUTION_X 100
RESOLUTION_Y 100
SPACING "P"
AVERAGE_WIDTH 142
CHARSET_REGISTRY "ISO10646"
CHARSET_ENCODING "1"
FONTNAME_REGISTRY ""
CHARSET_COLLECTIONS "ISO10646-1"
FONT_NAME "Consolas"
FACE_NAME "Consolas"
COPYRIGHT "(c) 2018 Microsoft Corporation. All rights reserved."
FONT_VERSION "7.00"
FONT_ASCENT 21
FONT_DESCENT 7
UNDERLINE_POSITION -5
UNDERLINE_THICKNESS 2
RAW_ASCENT 742
RAW_DESCENT 257
NORM_SPACE 15
RELATIVE_WEIGHT 40
RELATIVE_SETWIDTH 50
SUPERSCRIPT_X 0
SUPERSCRIPT_Y 13
SUPERSCRIPT_SIZE 18
SUBSCRIPT_X 0
SUBSCRIPT_Y 3
SUBSCRIPT_SIZE 18
FIGURE_WIDTH 15
AVG_UPPERCASE_WIDTH 150
ENDPROPERTIES
CHARS 21
STARTCHAR uni0000
ENCODING 0
SWIDTH 549 0
DWIDTH 15 0
BBX 1 1 0 0
BITMAP
00
ENDCHAR
STARTCHAR uni000D
ENCODING 13
SWIDTH 0 0
DWIDTH 0 0
BBX 1 1 0 0
BITMAP
00
ENDCHAR
STARTCHAR space
ENCODING 32
SWIDTH 549 0
DWIDTH 15 0
BBX 1 1 0 0
BITMAP
00
ENDCHAR
STARTCHAR period
ENCODING 46
SWIDTH 549 0
DWIDTH 15 0
BBX 5 5 5 0
BITMAP
70
F8
F8
F8
70
ENDCHAR
STARTCHAR zero
ENCODING 48
SWIDTH 549 0
DWIDTH 15 0
BBX 14 18 1 0
BITMAP
0FC0
1FE0
3870
7038
7038
E03C
E07C
E1DC
E39C
E71C
EE1C
F81C
F01C
7038
7038
3870
3FE0
0FC0
ENDCHAR
STARTCHAR one
ENCODING 49
SWIDTH 549 0
DWIDTH 15 0
BBX 13 18 1 0
BITMAP
0780
1F80
7B80
F380
4380
0380
0380
0380
0380
0380
0380
0380
0380
0380
0380
0380
7FF8
7FF8
ENDCHAR
STARTCHAR two
ENCODING 50
SWIDTH 549 0
DWIDTH 15 0
BBX 12 18 2 0
BITMAP
1F00
7FC0
E1C0
40E0
00E0
00E0
00E0
00E0
01C0
0380
0780
0F00
1E00
3C00
3800
7000
FFF0
FFF0
ENDCHAR
STARTCHAR three
ENCODING 51
SWIDTH 549 0
DWIDTH 15 0
BBX 12 18 2 0
BITMAP
3F00
7FC0
41E0
00E0
00E0
00E0
00E0
03C0
3F00
3FC0
01E0
0070
0070
0070
00F0
01E0
FFC0
FF00
ENDCHAR
STARTCHAR four
ENCODING 52
SWIDTH 549 0
DWIDTH 15 0
BBX 14 18 1 0
BITMAP
00F0
01F0
03F0
0370
0770
0E70
0C70
1870
3870
3070
6070
E070
FFFC
FFFC
0070
0070
0070
0070
ENDCHAR
STARTCHAR five
ENCODING 53
SWIDTH 549 0
DWIDTH 15 0
BBX 11 18 2 0
BITMAP
FFC0
FFC0
E000
E000
E000
E000
E000
FF00
FFC0
03C0
00E0
00E0
00E0
00E0
01C0
03C0
FF80
FE00
ENDCHAR
STARTCHAR six
ENCODING 54
SWIDTH 549 0
DWIDTH 15 0
BBX 13 18 2 0
BITMAP
03F0
0FF0
1E00
3800
7000
6000
E000
EFC0
FFF0
F070
E038
E038
E038
E038
7078
78F0
3FE0
0F80
ENDCHAR
STARTCHAR seven
ENCODING 55
SWIDTH 549 0
DWIDTH 15 0
BBX 12 18 2 0
BITMAP
FFF0
FFF0
0070
0060
00E0
00C0
01C0
0180
0380
0380
0700
0700
0E00
0E00
0C00
1C00
1800
3800
ENDCHAR
STARTCHAR eight
ENCODING 56
SWIDTH 549 0
DWIDTH 15 0
BBX 13 18 2 0
BITMAP
1FC0
7FF0
7078
E038
E038
E038
F070
7CF0
1FC0
1FC0
39F0
7070
E038
E038
E038
F070
7FF0
1FC0
ENDCHAR
STARTCHAR nine
ENCODING 57
SWIDTH 549 0
DWIDTH 15 0
BBX 13 18 1 0
BITMAP
0F80
3FE0
78F0
F070
E038
E038
E038
E038
7078
7FF8
1FB8
0038
0070
0070
00E0
03E0
7F80
7E00
ENDCHAR
STARTCHAR less
ENCODING 60
SWIDTH 549 0
DWIDTH 15 0
BBX 11 15 2 0
BITMAP
0040
00E0
03C0
0700
0E00
1C00
7000
E000
7000
1C00
0E00
0700
03C0
00E0
0040
ENDCHAR
STARTCHAR equal
ENCODING 61
SWIDTH 549 0
DWIDTH 15 0
BBX 12 7 2 4
BITMAP
FFF0
FFF0
0000
0000
0000
FFF0
FFF0
ENDCHAR
STARTCHAR greater
ENCODING 62
SWIDTH 549 0
DWIDTH 15 0
BBX 11 15 3 0
BITMAP
4000
E000
7800
1C00
0E00
0700
01C0
00E0
01C0
0700
0E00
1C00
7800
E000
4000
ENDCHAR
STARTCHAR C
ENCODING 67
SWIDTH 549 0
DWIDTH 15 0
BBX 12 18 1 0
BITMAP
07E0
1FF0
3C10
7800
7000
F000
E000
E000
E000
E000
E000
E000
E000
7000
7800
3C10
1FF0
0FE0
ENDCHAR
STARTCHAR F
ENCODING 70
SWIDTH 549 0
DWIDTH 15 0
BBX 10 18 3 0
BITMAP
FFC0
FFC0
E000
E000
E000
E000
E000
E000
FFC0
FFC0
E000
E000
E000
E000
E000
E000
E000
E000
ENDCHAR
STARTCHAR space.dup1
ENCODING 160
SWIDTH 549 0
DWIDTH 15 0
BBX 1 1 0 0
BITMAP
00
ENDCHAR
STARTCHAR degree
ENCODING 176
SWIDTH 549 0
DWIDTH 15 0
BBX 11 9 2 10
BITMAP
1F00
7FC0
71E0
E0E0
E0E0
E0E0
F1C0
7FC0
1F00
ENDCHAR
ENDFONT
